<svg xmlns="http://www.w3.org/2000/svg" viewBox="0 0 2175.01 386.47"><defs><style>.cls-1,.cls-2{fill:#343838;}.cls-2{opacity:0.75;}</style></defs><g id="ロゴ_黒" data-name="ロゴ 黒"><rect class="cls-1" x="2048.75" y="225.3" width="82.49" height="16.13" transform="translate(1856.64 2323.36) rotate(-90)"/><rect class="cls-1" x="-0.19" y="274.12" width="2098.19" height="16.13"/><rect class="cls-1" x="2048.75" y="225.3" width="82.49" height="16.13" transform="translate(1856.64 2323.36) rotate(-90)"/><polygon class="cls-1" points="2148.91 208.05 2081.99 208.05 2081.99 191.92 2115.63 191.92 2136.14 191.92 2148.91 208.05"/><polygon class="cls-1" points="1869.27 208.13 1936.18 208.13 1936.18 192 1902.54 192 1882.04 192 1869.27 208.13"/><rect class="cls-1" x="1903.05" y="209.05" width="50.44" height="16.13" transform="translate(1711.15 2145.39) rotate(-90)"/><polygon class="cls-1" points="2009.19 57.32 1894.37 202.46 1881.72 192.45 2009.08 31.47 2009.19 57.32"/><polygon class="cls-1" points="2008.95 57.33 2123.78 202.47 2136.43 192.46 2009.07 31.48 2008.95 57.33"/><path class="cls-2" d="M2109.9,83.15l-6.45,4.71c-1.94-2.63-4.08-5.37-6.44-8.18s-4.53-5.18-6.72-7.45l5.78-5.54q3.51,3.65,7.18,8C2105.69,77.58,2107.9,80.42,2109.9,83.15Z"/><path class="cls-2" d="M2137,76.65l-6.85,4.16A160.66,160.66,0,0,0,2100.3,45q2.67-3,5.36-5.93a164,164,0,0,1,17.53,18.21A166,166,0,0,1,2137,76.65Z"/><path class="cls-2" d="M2175,75.64l-7.37,3.07a156.68,156.68,0,0,0-60-72L2112,0a162,162,0,0,1,63,75.69Z"/><path class="cls-1" d="M65.46,32.75V160.84c0,15.59,5.2,25.07,9.78,30.26,5.81,7,16.51,14.07,32.41,14.07s26.6-7,32.4-14.07c4.59-5.19,9.79-14.67,9.79-30.26V32.75h39.74V157.48c0,19.25-3.06,38.82-15.29,54.41-14.67,19.26-40.35,29.35-66.64,29.35s-52-10.09-66.65-29.35c-12.22-15.59-15.28-35.16-15.28-54.41V32.75Z"/><path class="cls-1" d="M272.42,32.75V160.84c0,15.59,5.2,25.07,9.79,30.26,5.81,7,16.5,14.07,32.4,14.07s26.6-7,32.41-14.07c4.58-5.19,9.78-14.67,9.78-30.26V32.75h39.74V157.48c0,19.25-3.06,38.82-15.28,54.41-14.68,19.26-40.36,29.35-66.65,29.35s-52-10.09-66.64-29.35c-12.23-15.59-15.29-35.16-15.29-54.41V32.75Z"/><path class="cls-1" d="M431.7,127.22h79.48v34.24H431.7Z"/><path class="cls-1" d="M605.64,32.75c22.93,0,38.83,2.44,53.81,15.59C676,63,680.23,82.88,680.23,97.56c0,7.94-1.22,30-16.81,45.55-11.31,11.31-28.13,18-51.66,18H586.08v75.51H546.33V32.75ZM586.08,126.9h16.2c7.64,0,17.42,0,26-6.42,7.34-5.8,11-15,11-23.84,0-11.31-5.5-19-11.31-23.24C619.7,67.6,609.31,67,599.83,67H586.08Z"/><path class="cls-1" d="M753.3,32.75v203.9H716V32.75Z"/><path class="cls-1" d="M902.18,104.28h37.29V236.65H902.18V219.53c-13.45,19.26-31.18,21.4-40.66,21.4-40.66,0-67.56-31.79-67.56-70.62,0-39.13,26.59-70.31,65.72-70.31,10.09,0,30,1.84,42.5,21.4Zm-69.7,66c0,21.1,15.28,37.61,36.68,37.61s36.69-16.51,36.69-37.61S890.56,133,869.16,133,832.48,149.22,832.48,170.31Z"/><path class="cls-1" d="M1024.15,136.08V236.65H986.86V136.08H972.18v-31.8h14.68V59h37.29v45.24h25.68v31.8Z"/><path class="cls-1" d="M1126.56,111.62h86.21V32.75h39.75v203.9h-39.75V145.86h-86.21v90.79h-39.74V32.75h39.74Z"/><path class="cls-1" d="M1412.7,118.65c13.15,11.92,22.32,30.27,22.32,52a69.56,69.56,0,0,1-22.32,51.67c-11.31,10.39-28.43,18.64-53.5,18.64s-42.18-8.25-53.49-18.64a69.56,69.56,0,0,1-22.32-51.67c0-21.7,9.17-40.05,22.32-52C1317,108.26,1334.14,100,1359.2,100S1401.39,108.26,1412.7,118.65Zm-16.2,52c0-20.79-15.9-37.6-37.3-37.6s-37.29,16.81-37.29,37.6c0,20.18,15.59,37.3,37.29,37.3S1396.5,190.8,1396.5,170.62Z"/><path class="cls-1" d="M1460.39,104.28h37.3v15c14.06-17.73,31.49-19.26,39.44-19.26,27.82,0,38.52,17.43,41.88,24.15,6.42-10.39,19.56-24.15,42.49-24.15,20.49,0,30.57,9.48,35.77,16.2,8.56,11.32,9.17,22.63,9.17,37.3v83.15h-37.29V164.51c0-15.59-3.37-22.63-6.12-26-4.89-6.11-11.62-6.72-15.28-6.72-10.09,0-16.51,4.58-20.49,11.61-4.89,8-5.19,18.65-5.19,25.68v67.56h-37.3V164.51c0-15.59-3.36-22.63-6.11-26-4.9-6.11-11.62-6.72-15.29-6.72-10.09,0-16.51,4.58-20.48,11.61-4.89,8-5.2,18.65-5.2,25.68v67.56h-37.3Z"/><path class="cls-1" d="M1828.47,199.66c-4,9.79-19,41.27-65.12,41.27-21.4,0-37.6-6.11-50.75-18.64-14.67-13.76-20.79-30.88-20.79-51.67,0-26.29,10.7-42.49,20.18-52,15.59-15.29,33.93-18.65,49.83-18.65,26.9,0,42.5,10.7,51.67,21.71,14.06,16.81,15.89,37.6,15.89,52v3h-99.05c0,8,2.14,16.51,6.42,22.32,4,5.5,12.23,12.54,26.6,12.54,14.06,0,24.76-6.73,30.88-17.43Zm-34.24-46.77c-3.06-18-17.73-26.6-31.49-26.6s-28.13,8.87-31.18,26.6Z"/><path class="cls-1" d="M553.15,349.2H537.37v-4.26h35.37v4.26H558.26v11.13h25.88v4.39H558.26v14.09c0,3.14-.4,5.08-1.21,5.8s-3,1.08-6.52,1.08q-2.29,0-10-.33l-.2-4.39q7.41.33,9.7.33c1.53,0,2.43-.13,2.72-.4s.42-1.15.42-2.68v-13.5H526v-4.39h27.18Zm-24.63-14.74h24v-7h5.11v7h24v15.06H576.8V338.59H533.3v10.93h-4.78Z"/><path class="cls-1" d="M600.39,346.31V341.8h24.82V329h5.11V341.8h24.83v4.51h-24.7A38.2,38.2,0,0,0,638,366.72,47,47,0,0,0,656.2,381.1L653.58,385a48.21,48.21,0,0,1-15.79-11.53A46.15,46.15,0,0,1,628,356.93a46.45,46.45,0,0,1-10,16.57A49,49,0,0,1,602,385l-2.62-3.93a47,47,0,0,0,18.18-14.38,38.19,38.19,0,0,0,7.56-20.41Z"/><path class="cls-1" d="M698.91,328.76H704v10.48h21.69v4.39H704v14H722.5v4.26H704v17.68h24V384H672.9v-4.39h26V361.91H681v-4.26h17.88v-14H682.8a93.66,93.66,0,0,1-6.55,14.74L671.86,356a95.72,95.72,0,0,0,9.69-25.94l4.78.78q-1,5-2.09,8.39h14.67Z"/><path class="cls-1" d="M742.94,374.35A103.45,103.45,0,0,0,749,348.22l4.58.52q-1.56,15.79-6.09,27Zm17.42-2.09V341.93h5.24v26.59a71,71,0,0,0,15.1-15.59A95.51,95.51,0,0,0,791.61,332l4.45,1.71A96.06,96.06,0,0,1,783.55,357a80,80,0,0,1-17.95,17.32v1c0,2.32.17,3.74.49,4.26s1.26.85,2.79,1c1.18.13,3,.2,5.63.2s4.37-.07,5.64-.2c.65,0,1.16-.1,1.53-.16l1.22-.23a1.45,1.45,0,0,0,1-.56,4.53,4.53,0,0,1,.68-.78,2.3,2.3,0,0,0,.56-1.35q.17-1,.36-1.8a16.3,16.3,0,0,0,.3-2.55c.06-1.16.14-2.25.23-3.28s.17-2.45.26-4.29l4.91.72c-.17,3-.33,5.4-.46,7.14a40.08,40.08,0,0,1-.65,4.88,17.51,17.51,0,0,1-.92,3.28,4.71,4.71,0,0,1-1.54,1.8,5.86,5.86,0,0,1-2.19,1q-1.12.22-3.15.42-3.79.33-7.53.33-4.59,0-7.54-.26c-2.84-.22-4.67-.74-5.5-1.54s-1.27-2.68-1.31-5.6a119.17,119.17,0,0,1-13.63,7.2l-2.62-4.13A116.11,116.11,0,0,0,760.36,372.26Zm-1.9-38.85,1.31-4.32a109.06,109.06,0,0,1,24.44,7l-1.77,4.32A104.17,104.17,0,0,0,758.46,333.41Zm33,15.79,4.71-1.31a218.26,218.26,0,0,1,7.28,29l-4.72,1A192.06,192.06,0,0,0,791.48,349.2Z"/><path class="cls-1" d="M818.4,341.86a47.44,47.44,0,0,0,17.1-12l2.88,3.54a52.87,52.87,0,0,1-18.6,13Zm0,18.08a47.6,47.6,0,0,0,18-14l2.69,3.54a51.05,51.05,0,0,1-19.13,15Zm0,19.26a51.61,51.61,0,0,0,18.48-16.05l2.81,3.6a55.44,55.44,0,0,1-19.65,17Zm17.1,3.21q10.29-3.74,15.72-8.25l2.89,3.4q-5.83,5.12-16.19,8.72ZM839.56,335v-4.19h38.72V335H860.13q-.58,3-1.37,5.77h17.16v32.56H840.81V340.75h12.84c.43-1.57.91-3.5,1.44-5.77Zm6.09,15.2H871v-5.57H845.65Zm0,3.73v5.77H871v-5.77ZM871,369.37v-6H845.65v6Zm-10.88,8.46,2.56-3.67a84.21,84.21,0,0,1,16.18,8.77l-2.75,3.54A94.74,94.74,0,0,0,860.13,377.83Z"/><path class="cls-1" d="M926.3,378a19.88,19.88,0,0,0,12.18-6.91,20.33,20.33,0,0,0,4.59-13.4,16.37,16.37,0,0,0-5.18-12.51q-5.17-4.86-13.56-5.05-2.49,19.2-7.3,28.86t-11.17,9.66q-4.26,0-7.86-5a20.39,20.39,0,0,1-3.61-12.19q0-11.46,8.09-18.63t21.2-7.18q10.74,0,17.59,6.19a20.48,20.48,0,0,1,6.84,15.89,24.83,24.83,0,0,1-5.6,16.38,23.81,23.81,0,0,1-14.84,8.32Zm-7-37.61q-9.1,1.18-14.55,6.78a19.31,19.31,0,0,0-5.43,14,17,17,0,0,0,2.19,9q2.19,3.6,4.49,3.6a3.89,3.89,0,0,0,2.32-.92,12.49,12.49,0,0,0,2.72-3.31,35,35,0,0,0,2.92-6,76,76,0,0,0,2.82-9.6Q918.17,347.9,919.29,340.35Z"/><path class="cls-1" d="M1002.62,334.06a8.38,8.38,0,1,1,8.38,8.39,10.81,10.81,0,0,1-1.51-.13q-1.75,16.5-11.46,26.27t-27.84,13.3l-1.25-4.46q16.84-3.4,25.68-12.64t10-24.5H963.64v-4.46h39.11A8.6,8.6,0,0,1,1002.62,334.06Zm11.72,3.35a4.76,4.76,0,1,0-3.34,1.37A4.55,4.55,0,0,0,1014.34,337.41Z"/><path class="cls-1" d="M1031.51,354.24v-4.32h48.73v4.32q-2.49,12.72-11,19.62t-24.89,9.34l-.86-4.33q14.49-2.22,22.08-8.15t9.7-16.48Zm5.37-15.59v-4.39h38.65v4.39Z"/><path class="cls-1" d="M1095.12,347.36l4.19-1.18q1.83,5.77,4.39,15.73l-4.2,1.11Q1097.48,354.91,1095.12,347.36Zm40.68-2.49q-1.85,17.7-9,26.11t-23.16,11.76l-1.05-4.06q14.22-3.09,20.61-10.65t8-23.42Zm-27.32-.26,4.32-1.11q2.57,8.78,4.46,16.44l-4.33,1.12Q1111.18,353.46,1108.48,344.61Z"/><path class="cls-1" d="M1154.34,331.64h5.17v18.61a183.51,183.51,0,0,1,30.07,10.94l-1.77,4.25a179.78,179.78,0,0,0-28.3-10.41v28.63h-5.17Z"/><path class="cls-1" d="M1202.94,339.63v-4.45H1249v4.45q-1.32,17.43-11.07,27.71t-28.43,13.89l-1.18-4.45q16.83-3.4,25.68-12.65t10-24.5Z"/><path class="cls-1" d="M1265.77,348.81h25.55v-8.26H1296v8.26h11.59v4.12H1296v22.21q0,4.65-1.25,5.86t-5.89,1.21a67.07,67.07,0,0,1-8.85-.65l.33-4.19a58.08,58.08,0,0,0,8.12.65,2.22,2.22,0,0,0,2.89-2.88v-17a109.66,109.66,0,0,1-23.19,18.21l-2.3-3.6a102.18,102.18,0,0,0,24.63-19.79h-24.69Z"/><path class="cls-1" d="M1324.6,360.14v-5h51.49v5Z"/><path class="cls-1" d="M1427.18,356l4-2.23q7.8,12.92,14.67,26.47l-4.19,2.1q-2.49-5-3.93-7.67a418.6,418.6,0,0,1-47.1,5.77l-.26-4.46,7.6-.59a327.54,327.54,0,0,0,13.3-43l4.91,1a311.54,311.54,0,0,1-12.91,41.53q16.05-1.5,32.23-4.26Q1431.12,362.63,1427.18,356Z"/></g></svg>